<?xml version="1.0" standalone="no"?><!DOCTYPE svg PUBLIC "-//W3C//DTD SVG 1.1//EN" "http://www.w3.org/Graphics/SVG/1.1/DTD/svg11.dtd">
<svg t="1653632634797" class="icon" viewBox="0 0 1024 1024" version="1.1" fill="currentColor"
    xmlns="http://www.w3.org/2000/svg" p-id="2879">
    <defs>
        <style type="text/css"></style>
    </defs>
    <path d="M776.854 776.328l57.87 57.87a1 1 0 0 1 0 1.414l-41.074 41.073a1 1 0 0 1-1.414 0l-57.87-57.869c-23.747 15.728-52.224 24.888-82.841 24.888-82.963 0-150.217-67.255-150.217-150.217 0-82.963 67.254-150.218 150.217-150.218 82.963 0 150.217 67.255 150.217 150.218 0 30.616-9.16 59.094-24.888 82.841zM305.868 358.273c-16.621 0-30.095-13.352-30.095-29.823 0-16.47 13.474-29.823 30.095-29.823 16.62 0 30.095 13.352 30.095 29.823 0 16.47-13.474 29.823-30.095 29.823z m0 167.006c-16.621 0-30.095-13.352-30.095-29.823 0-16.47 13.474-29.822 30.095-29.822 16.62 0 30.095 13.352 30.095 29.822s-13.474 29.823-30.095 29.823z m0 167.006c-16.621 0-30.095-13.352-30.095-29.823 0-16.47 13.474-29.822 30.095-29.822 16.62 0 30.095 13.352 30.095 29.822 0 16.471-13.474 29.823-30.095 29.823z m67.409-393.658h303.506a1.2 1.2 0 0 1 1.2 1.2v57.246a1.2 1.2 0 0 1-1.2 1.2H373.277a1.2 1.2 0 0 1-1.2-1.2v-57.246a1.2 1.2 0 0 1 1.2-1.2z m0 167.007h303.506a1.2 1.2 0 0 1 1.2 1.2v57.245a1.2 1.2 0 0 1-1.2 1.2H373.277a1.2 1.2 0 0 1-1.2-1.2v-57.245a1.2 1.2 0 0 1 1.2-1.2z m0 167.006h93.227a1.2 1.2 0 0 1 1.2 1.2v57.245a1.2 1.2 0 0 1-1.2 1.2h-93.227a1.2 1.2 0 0 1-1.2-1.2V633.84a1.2 1.2 0 0 1 1.2-1.2z m278.248 150.977c49.778 0 90.13-40.353 90.13-90.13 0-49.778-40.352-90.13-90.13-90.13s-90.13 40.352-90.13 90.13c0 49.777 40.352 90.13 90.13 90.13zM238 751h241v60H208c-16.569 0-30-13.431-30-30V211c0-16.569 13.431-30 30-30h539c16.569 0 30 13.431 30 30v290.823h-60V241H238v510z" p-id="2880"></path>
</svg>