<?xml version="1.0" encoding="utf-8"?>
<svg xmlns="http://www.w3.org/2000/svg" viewBox="0 0 16 16" fill="#000000"><path d="M 7.5 1 C 6.402344 1 5.519531 1.855469 4.929688 3.03125 C 4.925781 3.042969 4.925781 3.050781 4.921875 3.0625 C 3.484375 2.886719 2.210938 3.0625 1.476563 3.890625 C 1.105469 4.3125 0.957031 4.871094 1.011719 5.421875 C 1.066406 5.96875 1.300781 6.523438 1.65625 7.074219 C 1.75 7.214844 1.875 7.359375 1.984375 7.5 C 1.875 7.640625 1.75 7.785156 1.65625 7.925781 C 1.300781 8.476563 1.066406 9.03125 1.011719 9.578125 C 0.957031 10.128906 1.105469 10.6875 1.476563 11.109375 C 2.207031 11.9375 3.484375 12.113281 4.921875 11.9375 C 4.925781 11.949219 4.925781 11.957031 4.929688 11.96875 C 5.519531 13.144531 6.402344 14 7.5 14 C 8.597656 14 9.480469 13.144531 10.066406 11.96875 C 10.074219 11.957031 10.074219 11.949219 10.078125 11.9375 C 11.515625 12.113281 12.792969 11.9375 13.523438 11.109375 C 13.894531 10.6875 14.042969 10.128906 13.988281 9.578125 C 13.933594 9.03125 13.699219 8.476563 13.34375 7.925781 C 13.25 7.785156 13.125 7.640625 13.015625 7.5 C 13.125 7.359375 13.25 7.214844 13.34375 7.074219 C 13.699219 6.523438 13.933594 5.96875 13.988281 5.421875 C 14.042969 4.871094 13.894531 4.3125 13.523438 3.890625 C 12.792969 3.0625 11.515625 2.886719 10.078125 3.0625 C 10.074219 3.050781 10.074219 3.042969 10.066406 3.03125 C 9.480469 1.855469 8.597656 1 7.5 1 Z M 7.5 2 C 8.007813 2 8.5625 2.425781 9.03125 3.25 C 8.535156 3.363281 8.023438 3.519531 7.5 3.710938 C 6.980469 3.519531 6.464844 3.363281 5.96875 3.25 C 6.4375 2.425781 6.992188 2 7.5 2 Z M 3.960938 4.007813 C 4.132813 4.003906 4.332031 4.023438 4.523438 4.039063 C 4.378906 4.476563 4.273438 4.953125 4.1875 5.449219 C 3.601563 5.859375 3.097656 6.292969 2.65625 6.734375 C 2.609375 6.667969 2.539063 6.59375 2.496094 6.527344 C 2.199219 6.070313 2.039063 5.648438 2.007813 5.320313 C 1.976563 4.992188 2.042969 4.761719 2.226563 4.554688 C 2.507813 4.238281 3.121094 4.023438 3.960938 4.007813 Z M 11.042969 4.007813 C 11.882813 4.023438 12.496094 4.238281 12.773438 4.554688 C 12.957031 4.761719 13.027344 4.988281 12.996094 5.320313 C 12.960938 5.652344 12.800781 6.070313 12.503906 6.527344 C 12.460938 6.59375 12.390625 6.667969 12.34375 6.734375 C 11.902344 6.292969 11.402344 5.859375 10.8125 5.445313 C 10.726563 4.953125 10.621094 4.476563 10.476563 4.039063 C 10.667969 4.023438 10.867188 4.003906 11.042969 4.007813 Z M 5.535156 4.1875 C 5.726563 4.226563 5.914063 4.265625 6.109375 4.320313 C 5.867188 4.4375 5.621094 4.5625 5.382813 4.699219 C 5.429688 4.523438 5.476563 4.347656 5.535156 4.1875 Z M 9.464844 4.1875 C 9.523438 4.347656 9.570313 4.523438 9.617188 4.695313 C 9.378906 4.5625 9.136719 4.4375 8.890625 4.320313 C 9.089844 4.265625 9.277344 4.226563 9.464844 4.1875 Z M 7.5 4.792969 C 8.089844 5.03125 8.683594 5.300781 9.273438 5.640625 C 9.492188 5.773438 9.6875 5.910156 9.894531 6.046875 C 9.957031 6.511719 10 6.992188 10 7.5 C 10 8.007813 9.957031 8.488281 9.894531 8.953125 C 9.6875 9.089844 9.492188 9.226563 9.269531 9.359375 C 8.683594 9.699219 8.089844 9.96875 7.5 10.207031 C 6.910156 9.96875 6.316406 9.699219 5.730469 9.359375 C 5.507813 9.226563 5.3125 9.089844 5.105469 8.953125 C 5.042969 8.488281 5 8.007813 5 7.5 C 5 6.992188 5.042969 6.511719 5.105469 6.046875 C 5.3125 5.910156 5.507813 5.773438 5.730469 5.640625 C 6.316406 5.300781 6.910156 5.03125 7.5 4.792969 Z M 10.96875 6.835938 C 11.234375 7.054688 11.472656 7.277344 11.6875 7.5 C 11.472656 7.722656 11.234375 7.941406 10.96875 8.164063 C 10.976563 7.941406 11 7.726563 11 7.5 C 11 7.273438 10.980469 7.054688 10.96875 6.835938 Z M 4.03125 6.835938 C 4.023438 7.058594 4 7.273438 4 7.5 C 4 7.726563 4.023438 7.941406 4.03125 8.164063 C 3.765625 7.941406 3.527344 7.722656 3.3125 7.5 C 3.527344 7.277344 3.765625 7.058594 4.03125 6.835938 Z M 7.5 7 C 7.222656 7 7 7.222656 7 7.5 C 7 7.777344 7.222656 8 7.5 8 C 7.777344 8 8 7.777344 8 7.5 C 8 7.222656 7.777344 7 7.5 7 Z M 2.65625 8.265625 C 3.097656 8.707031 3.601563 9.140625 4.1875 9.550781 C 4.273438 10.046875 4.378906 10.523438 4.523438 10.960938 C 3.402344 11.042969 2.5625 10.828125 2.226563 10.449219 C 2.042969 10.238281 1.972656 10.011719 2.007813 9.679688 C 2.039063 9.347656 2.199219 8.929688 2.496094 8.472656 C 2.539063 8.40625 2.609375 8.332031 2.65625 8.265625 Z M 12.34375 8.265625 C 12.390625 8.332031 12.460938 8.40625 12.503906 8.472656 C 12.800781 8.929688 12.960938 9.347656 12.996094 9.679688 C 13.027344 10.011719 12.957031 10.238281 12.773438 10.449219 C 12.4375 10.828125 11.597656 11.042969 10.476563 10.960938 C 10.621094 10.523438 10.726563 10.046875 10.8125 9.550781 C 11.398438 9.140625 11.902344 8.707031 12.34375 8.265625 Z M 5.382813 10.300781 C 5.621094 10.4375 5.863281 10.5625 6.109375 10.683594 C 5.910156 10.734375 5.722656 10.773438 5.535156 10.8125 C 5.476563 10.652344 5.429688 10.476563 5.382813 10.300781 Z M 9.617188 10.300781 C 9.570313 10.476563 9.523438 10.652344 9.464844 10.8125 C 9.277344 10.773438 9.089844 10.734375 8.890625 10.683594 C 9.136719 10.5625 9.378906 10.4375 9.617188 10.300781 Z M 7.5 11.289063 C 8.023438 11.480469 8.535156 11.636719 9.03125 11.75 C 8.5625 12.574219 8.007813 13 7.5 13 C 6.992188 13 6.4375 12.574219 5.96875 11.75 C 6.464844 11.636719 6.976563 11.480469 7.5 11.289063 Z" fill="#000000"/></svg>
