<svg xmlns="http://www.w3.org/2000/svg" xmlns:xlink="http://www.w3.org/1999/xlink" viewBox="0 0 470.03 359.86"><defs><style>.cls-1{isolation:isolate;}.cls-2{fill:#1d4472;opacity:0.15;}.cls-3{fill:#fff;}.cls-4{fill:#b5d2df;}.cls-5{fill:#414042;}.cls-6{fill:url(#linear-gradient);}.cls-7{fill:url(#linear-gradient-2);}.cls-8{fill:#c7dbe2;}.cls-15,.cls-34,.cls-9{fill:none;stroke:#414042;stroke-linecap:round;stroke-miterlimit:10;}.cls-9{stroke-width:5px;}.cls-10{fill:url(#linear-gradient-3);}.cls-11{fill:url(#linear-gradient-4);}.cls-12{fill:url(#linear-gradient-5);}.cls-13{fill:url(#linear-gradient-6);}.cls-14{fill:url(#linear-gradient-7);}.cls-15{stroke-width:3px;}.cls-16{fill:url(#linear-gradient-8);}.cls-17{fill:url(#linear-gradient-9);}.cls-18{fill:url(#linear-gradient-10);}.cls-19{fill:url(#linear-gradient-11);}.cls-20{fill:url(#linear-gradient-12);}.cls-21{fill:url(#linear-gradient-13);}.cls-22{fill:url(#linear-gradient-14);}.cls-23{fill:url(#linear-gradient-15);}.cls-24{fill:url(#linear-gradient-16);}.cls-25{fill:url(#linear-gradient-17);}.cls-26{fill:url(#linear-gradient-18);}.cls-27{fill:url(#linear-gradient-19);}.cls-28{fill:url(#linear-gradient-20);}.cls-29,.cls-30,.cls-31,.cls-32,.cls-33{mix-blend-mode:overlay;}.cls-29{fill:url(#linear-gradient-21);}.cls-30{fill:url(#linear-gradient-22);}.cls-31,.cls-32,.cls-33{opacity:0.48;}.cls-31{fill:url(#linear-gradient-23);}.cls-32{fill:url(#linear-gradient-24);}.cls-33{fill:url(#linear-gradient-25);}.cls-34{stroke-width:2px;}.cls-35{fill:url(#linear-gradient-26);}</style><linearGradient id="linear-gradient" x1="504.52" y1="232.25" x2="647.24" y2="242.34" gradientTransform="matrix(0.71, 0.71, -0.71, 0.71, 244.85, -154.67)" gradientUnits="userSpaceOnUse"><stop offset="0" stop-color="#4cecee"/><stop offset="0.4" stop-color="#12b1f1"/><stop offset="1" stop-color="#03a2f2"/></linearGradient><linearGradient id="linear-gradient-2" x1="491.85" y1="259.96" x2="636.66" y2="263.53" gradientTransform="matrix(0, 0.97, -0.96, -0.07, 705.31, -119.19)" gradientUnits="userSpaceOnUse"><stop offset="0" stop-color="#4cecee"/><stop offset="1" stop-color="#03a2f2"/></linearGradient><linearGradient id="linear-gradient-3" x1="322.73" y1="225.76" x2="444.64" y2="225.76" gradientTransform="translate(729.89 -141.56) rotate(92.23)" gradientUnits="userSpaceOnUse"><stop offset="0" stop-color="#ffffa6"/><stop offset="1" stop-color="#fb9f4c"/></linearGradient><linearGradient id="linear-gradient-4" x1="353.37" y1="231.42" x2="458.03" y2="231.42" xlink:href="#linear-gradient-3"/><linearGradient id="linear-gradient-5" x1="516.66" y1="214.88" x2="602.76" y2="259.16" gradientTransform="translate(535.19 -262.77) rotate(92.23)" gradientUnits="userSpaceOnUse"><stop offset="0" stop-color="#fff" stop-opacity="0"/><stop offset="0.09" stop-color="#fff" stop-opacity="0.03"/><stop offset="0.22" stop-color="#fff" stop-opacity="0.12"/><stop offset="0.39" stop-color="#fff" stop-opacity="0.27"/><stop offset="0.59" stop-color="#fff" stop-opacity="0.48"/><stop offset="0.8" stop-color="#fff" stop-opacity="0.74"/><stop offset="1" stop-color="#fff"/></linearGradient><linearGradient id="linear-gradient-6" x1="507.38" y1="220.67" x2="571.67" y2="253.73" xlink:href="#linear-gradient-5"/><linearGradient id="linear-gradient-7" x1="525.59" y1="381.36" x2="585.98" y2="381.36" gradientTransform="translate(729.89 -141.56) rotate(92.23)" gradientUnits="userSpaceOnUse"><stop offset="0" stop-color="#f15264"/><stop offset="1" stop-color="#f19764"/></linearGradient><linearGradient id="linear-gradient-8" x1="484.35" y1="347.92" x2="543.81" y2="347.92" gradientTransform="matrix(0.62, 0.71, -0.62, 0.71, 255.01, -255.6)" xlink:href="#linear-gradient-7"/><linearGradient id="linear-gradient-9" x1="524.27" y1="368.92" x2="583.38" y2="368.92" gradientTransform="matrix(0.62, 0.49, -0.62, 0.49, 257.96, -86.91)" xlink:href="#linear-gradient-7"/><linearGradient id="linear-gradient-10" x1="430.24" y1="279.95" x2="488.04" y2="279.95" gradientTransform="matrix(0.6, 0.71, -0.6, 0.71, 329.94, -223.19)" xlink:href="#linear-gradient-7"/><linearGradient id="linear-gradient-11" x1="429.49" y1="290.47" x2="486.8" y2="290.47" gradientTransform="matrix(0.6, 0.54, -0.6, 0.54, 327.53, -115.59)" xlink:href="#linear-gradient-7"/><linearGradient id="linear-gradient-12" x1="515.65" y1="361.36" x2="435.2" y2="273.55" gradientTransform="matrix(0.71, 0.71, -0.71, 0.71, 282.03, -239.72)" xlink:href="#linear-gradient-7"/><linearGradient id="linear-gradient-13" x1="533.14" y1="401.37" x2="586.14" y2="401.37" gradientTransform="matrix(0.08, 0.89, -0.88, -0.15, 630.73, -50.45)" xlink:href="#linear-gradient-7"/><linearGradient id="linear-gradient-14" x1="484.92" y1="406.02" x2="458.89" y2="285.86" gradientTransform="matrix(0, 0.96, -0.96, -0.07, 704.41, -117.24)" xlink:href="#linear-gradient-7"/><linearGradient id="linear-gradient-15" x1="451.02" y1="317.95" x2="482.59" y2="317.95" gradientTransform="matrix(-0.84, 0.55, -0.55, -0.84, 965.96, 326.48)" xlink:href="#linear-gradient-2"/><linearGradient id="linear-gradient-16" x1="464.99" y1="320.16" x2="488.16" y2="320.16" gradientTransform="translate(729.89 -141.56) rotate(92.23)" xlink:href="#linear-gradient-2"/><linearGradient id="linear-gradient-17" x1="327.81" y1="400.79" x2="511.05" y2="400.79" gradientTransform="translate(729.89 -141.56) rotate(92.23)" xlink:href="#linear-gradient"/><linearGradient id="linear-gradient-18" x1="326.52" y1="417.63" x2="471.36" y2="417.63" gradientTransform="matrix(0, 0.96, -0.96, -0.08, 703.98, -116.46)" xlink:href="#linear-gradient-2"/><linearGradient id="linear-gradient-19" x1="341.06" y1="386.99" x2="405.35" y2="420.05" xlink:href="#linear-gradient-5"/><linearGradient id="linear-gradient-20" x1="350.34" y1="381.21" x2="436.44" y2="425.49" xlink:href="#linear-gradient-5"/><linearGradient id="linear-gradient-21" x1="437.2" y1="205.95" x2="457.17" y2="205.95" gradientUnits="userSpaceOnUse"><stop offset="0" stop-color="#fff"/><stop offset="0.2" stop-color="#fff" stop-opacity="0.74"/><stop offset="0.41" stop-color="#fff" stop-opacity="0.48"/><stop offset="0.61" stop-color="#fff" stop-opacity="0.27"/><stop offset="0.78" stop-color="#fff" stop-opacity="0.12"/><stop offset="0.91" stop-color="#fff" stop-opacity="0.03"/><stop offset="1" stop-color="#fff" stop-opacity="0"/></linearGradient><linearGradient id="linear-gradient-22" x1="450" y1="202" x2="459.61" y2="202" xlink:href="#linear-gradient-21"/><linearGradient id="linear-gradient-23" x1="-172.19" y1="-211.88" x2="-141.61" y2="-232.96" gradientTransform="matrix(0.58, 0.63, -0.53, 0.49, 331.86, 512.54)" gradientUnits="userSpaceOnUse"><stop offset="0" stop-color="#fff" stop-opacity="0"/><stop offset="0.09" stop-color="#fff" stop-opacity="0.03"/><stop offset="0.22" stop-color="#fff" stop-opacity="0.12"/><stop offset="0.39" stop-color="#fff" stop-opacity="0.27"/><stop offset="0.59" stop-color="#fff" stop-opacity="0.48"/><stop offset="0.8" stop-color="#fff" stop-opacity="0.74"/><stop offset="0.89" stop-color="#fff" stop-opacity="0.85"/><stop offset="1" stop-color="#fff"/></linearGradient><linearGradient id="linear-gradient-24" x1="-170.46" y1="292.49" x2="-141.68" y2="272.65" gradientTransform="matrix(0.58, 0.63, -0.07, 0.06, 492.95, 363.01)" xlink:href="#linear-gradient-23"/><linearGradient id="linear-gradient-25" x1="-147.59" y1="1080.07" x2="-118.43" y2="1059.97" gradientTransform="matrix(0.47, 0.71, -0.16, 0.11, 549.23, 344.06)" xlink:href="#linear-gradient-23"/><linearGradient id="linear-gradient-26" x1="443.88" y1="226.3" x2="544.97" y2="226.3" gradientTransform="translate(-7.45 435.57) rotate(-47.23)" xlink:href="#linear-gradient-3"/></defs><g class="cls-1"><g id="Layer_1" data-name="Layer 1"><path class="cls-2" d="M538.58,189c38.15,14.54,95.13,36.25,115.28,82.34,25.3,57.88,1.81,108.82-23.33,130.37-63.25,54.22-221.63,103.61-330,46-11.33-6-109.64-73.1-105.67-166.73,2.4-56.61,41.8-100.15,50.09-108.42,6.18-6.17,61.88-60.23,126.25-50.09C404.57,127.74,407,145.05,472,169.13,508.15,182.51,509.28,177.87,538.58,189Z" transform="translate(-194.7 -121.21)"/><path class="cls-2" d="M535.49,192.11c37.07,14.12,92.43,35.22,112,80,24.58,56.23,1.76,105.73-22.66,126.67-61.46,52.67-215.34,100.66-320.67,44.66-11-5.85-106.53-71-102.67-162,2.34-55,40.62-97.3,48.67-105.33,6-6,60.12-58.52,122.67-48.67,32.46,5.12,34.79,21.93,98,45.34C505.92,185.77,507,181.26,535.49,192.11Z" transform="translate(-194.7 -121.21)"/><polygon class="cls-3" points="414.3 246.44 415.5 233.08 428.62 230.35 415.27 229.15 412.53 216.02 411.32 229.37 398.21 232.11 411.56 233.31 414.3 246.44"/><path class="cls-3" d="M369.5,194.42a3.69,3.69,0,1,0,3.6-3.76A3.69,3.69,0,0,0,369.5,194.42Z" transform="translate(-194.7 -121.21)"/><path class="cls-3" d="M520.16,346a2.3,2.3,0,1,0,2.24-2.35A2.3,2.3,0,0,0,520.16,346Z" transform="translate(-194.7 -121.21)"/><path class="cls-3" d="M419.4,349.68a3.69,3.69,0,1,0,3.6-3.77A3.69,3.69,0,0,0,419.4,349.68Z" transform="translate(-194.7 -121.21)"/><path class="cls-3" d="M333.78,466.13a1.87,1.87,0,1,0,1.82-1.92A1.87,1.87,0,0,0,333.78,466.13Z" transform="translate(-194.7 -121.21)"/><polygon class="cls-3" points="188.92 291.88 186.18 278.76 184.98 292.11 171.85 294.85 185.21 296.05 187.94 309.17 189.14 295.82 202.27 293.08 188.92 291.88"/><polygon class="cls-3" points="69.75 148.9 56.62 151.63 69.97 152.83 72.71 165.96 73.92 152.6 87.04 149.87 73.69 148.67 70.95 135.54 69.75 148.9"/><path class="cls-3" d="M228.57,243.59a3.69,3.69,0,1,0,3.6-3.77A3.68,3.68,0,0,0,228.57,243.59Z" transform="translate(-194.7 -121.21)"/><path class="cls-4" d="M528.75,209.85A13.73,13.73,0,1,1,543,196.66,13.73,13.73,0,0,1,528.75,209.85Z" transform="translate(-194.7 -121.21)"/><rect class="cls-5" x="503.97" y="199.09" width="12.67" height="29.18" transform="translate(125.92 -427.24) rotate(47.23)"/><rect class="cls-4" x="418.79" y="213.14" width="163.09" height="14.9" rx="5.96" transform="translate(127.79 -417.7) rotate(47.23)"/><rect class="cls-6" x="411.55" y="362.7" width="121.62" height="87.84" rx="6.09" transform="translate(255.38 -337.46) rotate(47.23)"/><path class="cls-7" d="M475.2,476.46,403,398.36a7.62,7.62,0,0,1,.41-10.76l54.38-50.3,23.46,28.1a91.84,91.84,0,0,1,5.39,110.54l-.64.94A7.62,7.62,0,0,1,475.2,476.46Z" transform="translate(-194.7 -121.21)"/><path class="cls-8" d="M299.66,374.15h14.92a0,0,0,0,1,0,0v13a6,6,0,0,1-6,6h-3a6,6,0,0,1-6-6v-13a0,0,0,0,1,0,0Z" transform="translate(185.47 -223.54) rotate(47.23)"/><path class="cls-4" d="M304.65,386.13h0c-2.8-3-3.31-7.17-1.13-9.22l6.08-5.72,10.14,11-6.08,5.72C311.48,390,307.45,389.17,304.65,386.13Z" transform="translate(-194.7 -121.21)"/><path class="cls-8" d="M318.65,391.13h14.92a0,0,0,0,1,0,0V407a6,6,0,0,1-6,6h-3a6,6,0,0,1-6-6V391.13A0,0,0,0,1,318.65,391.13Z" transform="translate(205.09 -231.57) rotate(47.23)"/><path class="cls-4" d="M322.59,405.62h0c-2.8-3-3.3-7.17-1.12-9.22l7.6-7.15,10.14,11-7.61,7.15C329.43,409.46,325.39,408.66,322.59,405.62Z" transform="translate(-194.7 -121.21)"/><path class="cls-9" d="M318.65,391.13h14.92a0,0,0,0,1,0,0V407a6,6,0,0,1-6,6h-3a6,6,0,0,1-6-6V391.13A0,0,0,0,1,318.65,391.13Z" transform="translate(205.09 -231.57) rotate(47.23)"/><path class="cls-9" d="M299.66,374.15h14.92a0,0,0,0,1,0,0v13a6,6,0,0,1-6,6h-3a6,6,0,0,1-6-6v-13a0,0,0,0,1,0,0Z" transform="translate(185.47 -223.54) rotate(47.23)"/><path class="cls-10" d="M548.73,275.41a71.4,71.4,0,1,1-97-104.83" transform="translate(-194.7 -121.21)"/><path class="cls-11" d="M535,260.58a61.3,61.3,0,0,1-83.26-90" transform="translate(-194.7 -121.21)"/><polygon class="cls-12" points="206.54 271.35 216.38 262.25 336.98 287.74 348.39 300.07 206.54 271.35"/><polygon class="cls-13" points="224.33 254.89 234.18 245.79 319.33 265.77 330.74 278.1 224.33 254.89"/><rect class="cls-4" x="407.59" y="343.69" width="27.99" height="16.07" transform="translate(198.78 -317.8) rotate(47.23)"/><rect class="cls-9" x="407.59" y="343.69" width="27.99" height="16.07" transform="translate(198.78 -317.8) rotate(47.23)"/><rect class="cls-5" x="420.82" y="338.55" width="1.53" height="26.35" transform="translate(775.2 202.44) rotate(137.23)"/><rect class="cls-4" x="345.91" y="277.02" width="27.99" height="16.07" transform="translate(130.05 -293.92) rotate(47.23)"/><rect class="cls-9" x="345.91" y="277.02" width="27.99" height="16.07" transform="translate(130.05 -293.92) rotate(47.23)"/><rect class="cls-5" x="359.14" y="271.88" width="1.53" height="26.35" transform="translate(622.98 128.71) rotate(137.23)"/><rect class="cls-8" x="425.62" y="268.84" width="27.99" height="20.49" transform="translate(151.25 -354.35) rotate(47.23)"/><rect class="cls-4" x="431.22" y="271.29" width="27.99" height="5.21" transform="translate(149.24 -360.13) rotate(47.23)"/><rect class="cls-9" x="425.62" y="268.84" width="27.99" height="20.49" transform="translate(151.25 -354.35) rotate(47.23)"/><rect class="cls-5" x="436.72" y="268.84" width="5.79" height="20.49" transform="translate(151.25 -354.35) rotate(47.23)"/><rect class="cls-8" x="325.3" y="352.13" width="35.7" height="32.39" transform="translate(185.8 -254.9) rotate(47.23)"/><rect class="cls-4" x="332.17" y="355.14" width="35.7" height="13.65" transform="translate(183.33 -261.99) rotate(47.23)"/><rect class="cls-9" x="325.3" y="352.13" width="35.7" height="32.39" transform="translate(185.8 -254.9) rotate(47.23)"/><rect class="cls-5" x="342.8" y="354.82" width="5.79" height="20.49" transform="translate(184.22 -257.82) rotate(47.23)"/><path class="cls-14" d="M338.23,412l-39-42.16a3.74,3.74,0,0,1,.64-5.62l17-11.64a3.74,3.74,0,0,1,4.86.54l34.95,37.78a3.72,3.72,0,0,1,.16,4.88l-12.93,16A3.73,3.73,0,0,1,338.23,412Z" transform="translate(-194.7 -121.21)"/><rect class="cls-15" x="450.32" y="362.7" width="44.1" height="87.84" transform="translate(255.38 -337.46) rotate(47.23)"/><rect class="cls-15" x="411.55" y="392.62" width="121.62" height="28" transform="translate(255.38 -337.46) rotate(47.23)"/><rect class="cls-9" x="411.55" y="362.7" width="121.62" height="87.84" rx="6.09" transform="translate(255.38 -337.46) rotate(47.23)"/><path class="cls-16" d="M328.59,344.91h57.6a0,0,0,0,1,0,0v16.51a4,4,0,0,1-4,4H332.57a4,4,0,0,1-4-4V344.91A0,0,0,0,1,328.59,344.91Z" transform="matrix(0.68, 0.73, -0.73, 0.68, 180.7, -269.58)"/><path class="cls-17" d="M330.94,345.93h57.6a0,0,0,0,1,0,0V356a4,4,0,0,1-4,4H334.92a4,4,0,0,1-4-4v-10.1A0,0,0,0,1,330.94,345.93Z" transform="translate(179.85 -272.01) rotate(47.23)"/><path class="cls-9" d="M328.59,344.91h57.6a0,0,0,0,1,0,0v16.51a4,4,0,0,1-4,4H332.57a4,4,0,0,1-4-4V344.91A0,0,0,0,1,328.59,344.91Z" transform="matrix(0.68, 0.73, -0.73, 0.68, 180.7, -269.58)"/><path class="cls-18" d="M409.5,277.8h40.86a7.63,7.63,0,0,1,7.63,7.63v12.85a0,0,0,0,1,0,0H401.87a0,0,0,0,1,0,0V285.43A7.63,7.63,0,0,1,409.5,277.8Z" transform="translate(154.71 -344.37) rotate(47.23)"/><path class="cls-19" d="M407.77,281.76h40.86a7.63,7.63,0,0,1,7.63,7.63v8.13a0,0,0,0,1,0,0H400.14a0,0,0,0,1,0,0V289.4A7.63,7.63,0,0,1,407.77,281.76Z" transform="translate(155.34 -342.58) rotate(47.23)"/><path class="cls-9" d="M409.5,277.8h40.86a7.63,7.63,0,0,1,7.63,7.63v12.85a0,0,0,0,1,0,0H401.87a0,0,0,0,1,0,0V285.43A7.63,7.63,0,0,1,409.5,277.8Z" transform="translate(154.71 -344.37) rotate(47.23)"/><rect class="cls-20" x="350.99" y="273.82" width="85.4" height="95.5" rx="8.74" transform="translate(167.7 -307) rotate(47.23)"/><path class="cls-8" d="M531.32,193c-2.7-1.64-4.17-4-3.27-5.33s3.81-1,6.52.59,4.17,4,3.27,5.33S534,194.67,531.32,193Z" transform="translate(-194.7 -121.21)"/><path class="cls-9" d="M528.75,209.85A13.73,13.73,0,1,1,543,196.66,13.73,13.73,0,0,1,528.75,209.85Z" transform="translate(-194.7 -121.21)"/><path class="cls-21" d="M338.22,412l-39-42.09c-1.55-1.68-1.6-4-.1-5h0a19.3,19.3,0,0,1,24.39,3.25l18.26,19.71a19.3,19.3,0,0,1,1.38,24.57h0C342.11,413.87,339.77,413.65,338.22,412Z" transform="translate(-194.7 -121.21)"/><path class="cls-9" d="M338.23,412l-39-42.16a3.74,3.74,0,0,1,.64-5.62l17-11.64a3.74,3.74,0,0,1,4.86.54l34.95,37.78a3.72,3.72,0,0,1,.16,4.88l-12.93,16A3.73,3.73,0,0,1,338.23,412Z" transform="translate(-194.7 -121.21)"/><path class="cls-22" d="M360.68,341.28l-25.88-23.4,56.92-52.66a10.92,10.92,0,0,1,15.44.6l43.16,46.65a10.93,10.93,0,0,1-.61,15.44l-28.34,18.3A50,50,0,0,1,360.68,341.28Z" transform="translate(-194.7 -121.21)"/><rect class="cls-9" x="350.99" y="273.82" width="85.4" height="95.5" rx="8.74" transform="translate(167.7 -307) rotate(47.23)"/><circle class="cls-23" cx="393.69" cy="321.57" r="15.78" transform="translate(-291.39 334.25) rotate(-54.51)"/><path class="cls-24" d="M391,333.76a11.58,11.58,0,1,1,12-11.12A11.58,11.58,0,0,1,391,333.76Z" transform="translate(-194.7 -121.21)"/><circle class="cls-9" cx="393.69" cy="321.57" r="15.78" transform="translate(-291.39 334.25) rotate(-54.51)"/><path class="cls-25" d="M319.05,305.57l-74.32-80.34a6.1,6.1,0,0,1,.34-8.61l55.54-51.38a6.09,6.09,0,0,1,8.6.34l74.32,80.34a6.08,6.08,0,0,1-.33,8.6L327.66,305.9A6.1,6.1,0,0,1,319.05,305.57Z" transform="translate(-194.7 -121.21)"/><path class="cls-26" d="M318,304.47l-72.24-78.1a7.61,7.61,0,0,1,.42-10.76l53.91-49.88,56.7,64.49a29,29,0,0,1,1.16,36.93l-29.18,37.73A7.63,7.63,0,0,1,318,304.47Z" transform="translate(-194.7 -121.21)"/><polygon class="cls-27" points="64.61 82.24 74.45 73.13 159.61 93.12 171.01 105.45 64.61 82.24"/><polygon class="cls-28" points="46.82 98.7 56.66 89.59 177.26 115.08 188.67 127.42 46.82 98.7"/><rect class="cls-15" x="292.08" y="191.65" width="44.1" height="87.84" transform="translate(79.04 -276.2) rotate(47.23)"/><rect class="cls-15" x="253.32" y="221.57" width="121.62" height="28" transform="translate(79.04 -276.2) rotate(47.23)"/><path class="cls-9" d="M319.05,305.57l-74.32-80.34a6.1,6.1,0,0,1,.34-8.61l55.54-51.38a6.09,6.09,0,0,1,8.6.34l74.32,80.34a6.08,6.08,0,0,1-.33,8.6L327.66,305.9A6.1,6.1,0,0,1,319.05,305.57Z" transform="translate(-194.7 -121.21)"/><path class="cls-29" d="M447.26,207.21c-1.63,5.93-5,10.18-7.55,9.48s-3.28-6.07-1.65-12,5-10.17,7.55-9.48S448.89,201.28,447.26,207.21Z" transform="translate(-194.7 -121.21)"/><path class="cls-30" d="M453.23,202.41c-.44,1.6-1.48,2.71-2.32,2.48s-1.16-1.71-.72-3.31,1.48-2.71,2.31-2.48S453.67,200.81,453.23,202.41Z" transform="translate(-194.7 -121.21)"/><path class="cls-31" d="M339.12,324.12h0a3.58,3.58,0,0,1,.2-5.06l34.45-31.87a3.58,3.58,0,0,1,5.06.2h0a3.58,3.58,0,0,1-.2,5.06l-34.44,31.87A3.59,3.59,0,0,1,339.12,324.12Z" transform="translate(-194.7 -121.21)"/><path class="cls-32" d="M380.5,286.23h0a3.59,3.59,0,0,1,.19-5.07h0a3.6,3.6,0,0,1,5.07.2h0a3.58,3.58,0,0,1-.2,5.06h0A3.58,3.58,0,0,1,380.5,286.23Z" transform="translate(-194.7 -121.21)"/><path class="cls-33" d="M305.78,370h0a3.59,3.59,0,0,1,1-5l6.33-4.2a3.58,3.58,0,0,1,5,1h0a3.58,3.58,0,0,1-1,5l-6.34,4.2A3.58,3.58,0,0,1,305.78,370Z" transform="translate(-194.7 -121.21)"/><line class="cls-34" x1="201.89" y1="243.57" x2="186.73" y2="257.6"/><line class="cls-34" x1="145.94" y1="276.44" x2="137.88" y2="283.89"/><line class="cls-34" x1="153.19" y1="269.62" x2="149.4" y2="273.13"/><line class="cls-34" x1="128.83" y1="234.34" x2="125.04" y2="237.85"/><line class="cls-34" x1="224.33" y1="222.81" x2="206.54" y2="239.27"/><line class="cls-34" x1="342.25" y1="162.64" x2="325.79" y2="144.85"/><line class="cls-34" x1="264.42" y1="77.86" x2="247.96" y2="60.07"/><line class="cls-34" x1="327.76" y1="156.44" x2="324.86" y2="153.31"/><line class="cls-34" x1="337.31" y1="166.77" x2="332.07" y2="161.1"/><line class="cls-34" x1="208.45" y1="144.46" x2="197.9" y2="154.22"/><line class="cls-34" x1="238.04" y1="210.13" x2="234.74" y2="213.18"/><rect class="cls-35" x="424.3" y="222.32" width="140.25" height="7.97" transform="translate(130.09 -411.52) rotate(47.23)"/><path class="cls-9" d="M548.73,275.41a71.4,71.4,0,1,1-97-104.83" transform="translate(-194.7 -121.21)"/><path class="cls-8" d="M547.36,282.38l-105-113.48a4.24,4.24,0,0,1,.23-6h0a4.24,4.24,0,0,1,6,.23l105,113.49a4.24,4.24,0,0,1-.24,6h0A4.24,4.24,0,0,1,547.36,282.38Z" transform="translate(-194.7 -121.21)"/><rect class="cls-9" x="418.79" y="213.14" width="163.09" height="14.9" rx="5.96" transform="translate(127.79 -417.7) rotate(47.23)"/></g></g></svg>