<?xml version="1.0" encoding="utf-8"?>
<!-- Generator: Adobe Illustrator 24.3.0, SVG Export Plug-In . SVG Version: 6.00 Build 0)  -->
<svg version="1.1" id="_x30_3" xmlns="http://www.w3.org/2000/svg" xmlns:xlink="http://www.w3.org/1999/xlink" x="0px" y="0px"
	 viewBox="0 0 3000 2000" style="enable-background:new 0 0 3000 2000;" xml:space="preserve">
<style type="text/css">
	.st0{opacity:0.2;}
	.st1{fill-rule:evenodd;clip-rule:evenodd;fill:#FFB700;}
	.st2{fill:#8A1C00;}
	.st3{fill-rule:evenodd;clip-rule:evenodd;fill:#F82738;}
	.st4{fill-rule:evenodd;clip-rule:evenodd;fill:#C9EDFF;}
	.st5{opacity:8.000000e-02;fill-rule:evenodd;clip-rule:evenodd;}
	.st6{fill-rule:evenodd;clip-rule:evenodd;fill:#FACB04;}
	.st7{fill-rule:evenodd;clip-rule:evenodd;fill:#FEE697;}
	.st8{fill-rule:evenodd;clip-rule:evenodd;fill:#FFFFFF;}
	.st9{opacity:0.21;}
	.st10{fill:#DE0D1E;}
	.st11{fill-rule:evenodd;clip-rule:evenodd;fill:#896EED;}
	.st12{opacity:9.000000e-02;fill-rule:evenodd;clip-rule:evenodd;fill:#DE0D1E;}
</style>
<g>
	<g>
		<g class="st0">
			<path class="st1" d="M1447.3,847.4c456.3,0,826.2,369.9,826.2,826.2H621.1C621.1,1217.3,991,847.4,1447.3,847.4z"/>
		</g>
		<path class="st1" d="M1447.3,1155.5c286.1,0,518.1,232,518.1,518.1H929.2C929.2,1387.4,1161.1,1155.5,1447.3,1155.5z"/>
	</g>
	<g>
		<path class="st2" d="M2354,1684.4H513.6c-6,0-10.8-4.8-10.8-10.8c0-6,4.8-10.8,10.8-10.8H2354c6,0,10.8,4.8,10.8,10.8
			C2364.8,1679.5,2360,1684.4,2354,1684.4z"/>
	</g>
	<path class="st3" d="M904.7,324.6c-69.1,0-328.8,625.6-70.1,1348.9h70.1h70.1C1233.5,950.2,973.8,324.6,904.7,324.6z"/>
	<path class="st4" d="M1020.9,1526.2c108.8-403.1,65.1-762.7,0-981.2C955.8,763.5,912.1,1123.1,1020.9,1526.2z"/>
	<path class="st4" d="M788.7,1526.2c-108.8-403.1-65.1-762.7,0-981.2C853.8,763.5,897.4,1123.1,788.7,1526.2z"/>
	<g>
		<path class="st2" d="M984.4,1684.4H829l-2.6-7.1c-52.8-147.7-87.5-301.3-103.2-456.6c-13.4-132.4-13-265.5,1.2-395.5
			c11.7-106.8,32.9-211.1,61.3-301.6c23.6-75,52-139.1,77.9-175.9c16.1-22.8,30.1-33.9,43-33.9c12.9,0,26.9,11.1,43,33.9
			c25.9,36.8,54.3,100.9,77.9,175.9c28.5,90.5,49.7,194.8,61.3,301.6c14.2,130,14.6,263,1.2,395.5
			c-15.7,155.3-50.4,308.9-103.2,456.6L984.4,1684.4z M844.2,1662.8h125c119.6-338.6,119.6-640.8,98.3-835.3
			c-24.4-223.7-87.3-399.1-135.5-467.4c-17.2-24.5-25.3-24.7-25.4-24.7s-8.2,0.3-25.4,24.7c-48.1,68.3-111,243.7-135.5,467.4
			C724.6,1022,724.6,1324.2,844.2,1662.8z"/>
	</g>
	<ellipse class="st5" cx="904" cy="1355.7" rx="113.2" ry="199.2"/>
	<g>
		<path class="st6" d="M960.8,1512.5c89,0,161.1,72.1,161.1,161.1H799.7C799.7,1584.6,871.8,1512.5,960.8,1512.5z"/>
		<path class="st7" d="M960.8,1512.5c81.4,0,148.6,60.3,159.6,138.7c-36,10-77.9,10.1-119.7-2.2c-62.8-18.5-110.6-60.2-131.1-108.1
			C895.5,1522.9,927,1512.5,960.8,1512.5z"/>
	</g>
	<g>
		<path class="st2" d="M1121.9,1684.4H799.7c-6,0-10.8-4.8-10.8-10.8c0-94.8,77.1-171.9,171.9-171.9c94.8,0,171.9,77.1,171.9,171.9
			C1132.7,1679.5,1127.9,1684.4,1121.9,1684.4z M810.9,1662.8h299.9c-5.5-77.9-70.7-139.6-150-139.6S816.4,1584.9,810.9,1662.8z"/>
	</g>
	<path class="st8" d="M1006,1562.2c17.6,8.3,26.9,25.5,20.8,38.3c-6.1,12.9-25.3,16.5-42.8,8.2c-17.6-8.3-26.9-25.5-20.8-38.3
		C969.3,1557.5,988.4,1553.9,1006,1562.2z"/>
	<g>
		<path class="st6" d="M733.9,1564.6c60.2,0,108.9,48.8,108.9,108.9H625C625,1613.4,673.8,1564.6,733.9,1564.6z"/>
		<path class="st7" d="M733.9,1564.6c55,0,100.5,40.8,107.9,93.8c-24.4,6.8-52.6,6.8-80.9-1.5c-42.5-12.5-74.7-40.7-88.6-73.1
			C689.8,1571.7,711,1564.6,733.9,1564.6z"/>
	</g>
	<g>
		<path class="st2" d="M842.9,1684.4H625c-6,0-10.8-4.8-10.8-10.8c0-66,53.7-119.7,119.7-119.7s119.7,53.7,119.7,119.7
			C853.6,1679.5,848.8,1684.4,842.9,1684.4z M636.4,1662.8h195.1c-5.4-49.1-47.1-87.4-97.6-87.4
			C683.5,1575.4,641.8,1613.7,636.4,1662.8z"/>
	</g>
	<path class="st8" d="M764.5,1598.2c11.9,5.6,18.2,17.2,14,25.9c-4.1,8.7-17.1,11.2-28.9,5.6c-11.9-5.6-18.2-17.2-14-25.9
		C739.6,1595.1,752.6,1592.6,764.5,1598.2z"/>
	<path class="st8" d="M906.7,467L906.7,467c4.9,0,9,4,9,9v964.6c0,4.9-4,9-9,9h0c-4.9,0-9-4-9-9V476C897.7,471,901.7,467,906.7,467z
		"/>
	<g>
		<path class="st8" d="M1449.9,807.2c239.7,0,434.1,194.3,434.1,434.1c0,239.7-194.3,434.1-434.1,434.1s-434.1-194.3-434.1-434.1
			C1015.8,1001.5,1210.2,807.2,1449.9,807.2L1449.9,807.2z M1449.9,1019.6c-122.4,0-221.7,99.3-221.7,221.7s99.3,221.7,221.7,221.7
			c122.4,0,221.7-99.3,221.7-221.7S1572.4,1019.6,1449.9,1019.6z"/>
		<path class="st3" d="M1449.9,807.2c26.9,0,53.3,2.5,78.9,7.2l-19.1,213.4c-19-5.3-39.1-8.2-59.8-8.2c-20.7,0-40.8,2.8-59.8,8.2
			L1371,814.4C1396.6,809.7,1423,807.2,1449.9,807.2L1449.9,807.2z M1696,883.7c43.6,30.1,81.4,67.9,111.5,111.5l-164.4,137.4
			c-19.9-35.3-49.2-64.6-84.5-84.5L1696,883.7L1696,883.7z M1876.8,1162.4c4.7,25.6,7.2,51.9,7.2,78.9c0,26.9-2.5,53.3-7.2,78.9
			l-213.4-19.1c5.3-19,8.2-39.1,8.2-59.8c0-20.7-2.8-40.8-8.2-59.8L1876.8,1162.4L1876.8,1162.4z M1807.5,1487.4
			c-30.1,43.6-67.9,81.4-111.5,111.5l-137.4-164.4c35.3-19.9,64.6-49.2,84.5-84.5L1807.5,1487.4L1807.5,1487.4z M1528.8,1668.2
			c-25.6,4.7-51.9,7.2-78.9,7.2c-26.9,0-53.3-2.5-78.9-7.2l19.1-213.4c19,5.3,39.1,8.2,59.8,8.2c20.7,0,40.8-2.8,59.8-8.2
			L1528.8,1668.2L1528.8,1668.2z M1203.8,1598.9c-43.6-30.1-81.4-67.9-111.5-111.5l164.4-137.4c19.9,35.3,49.2,64.6,84.5,84.5
			L1203.8,1598.9L1203.8,1598.9z M1023,1320.1c-4.7-25.6-7.2-51.9-7.2-78.9c0-26.9,2.5-53.3,7.2-78.9l213.4,19.1
			c-5.3,19-8.2,39.1-8.2,59.8c0,20.7,2.8,40.8,8.2,59.8L1023,1320.1L1023,1320.1z M1092.3,995.2c30.1-43.6,67.9-81.4,111.5-111.5
			l137.4,164.4c-35.3,19.9-64.6,49.2-84.5,84.5L1092.3,995.2z"/>
		<g class="st9">
			<path class="st10" d="M1450.9,1506.4c-55.2,0-108.9-17-154.8-49.6c-38.4-27.2-68.5-63.4-88.1-105.6c-3.2-2-5.9-5-7.5-8.7
				c-17.3-41.3-24.1-86.7-19.6-131.3c4.6-46,21.3-90.3,48.2-128.2c41.5-58.5,103.3-97.4,174.1-109.5c70.8-12,142,4.2,200.5,45.7
				c51.3,36.4,79.1,69.6,95.7,114.7c17.2,41.2,23.9,86.5,19.4,130.9c-4.6,46-21.3,90.3-48.2,128.2
				c-41.5,58.5-103.3,97.4-174.1,109.5C1481.4,1505.1,1466.1,1506.4,1450.9,1506.4z M1228,1309.1c2.9,2.1,5.2,5.1,6.5,8.7
				c16.1,43.9,44.9,81.4,83.2,108.5c50.4,35.7,111.7,49.7,172.6,39.3c60.9-10.4,114.1-43.8,149.8-94.2
				c46.5-65.6,55.7-149.1,24.6-223.3c-0.1-0.3-0.2-0.5-0.3-0.8c-13.8-37.5-37.7-65.7-82.4-97.4c-104-73.8-248.6-49.1-322.4,54.9
				C1217.1,1164.8,1205.8,1239.8,1228,1309.1z"/>
		</g>
		<g class="st9">
			<path class="st10" d="M1446.4,1683.9c-31.4,0-62.7-3.4-93.7-10.2c-57.1-12.6-110.5-36.3-158.6-70.4
				c-72.4-51.3-126.7-122.2-157.2-205.2c-0.1-0.4-0.3-0.8-0.4-1.2c-21.2-71.7-29.2-139.7-23.8-201.9c6.3-71.8,30.5-138.9,72.1-199.3
				c34.2-49.7,77.5-91.3,128.7-123.7c49.5-31.3,103.9-52.3,161.6-62.6c114.9-20.4,229.2,4.6,322.1,70.4
				c48.1,34.1,88.2,77.1,119.3,127.9c30,49,50.2,102.8,60.1,160c9.9,57.3,8.9,114.8-3,171c-12.4,58.4-36,112.6-70.3,160.9
				c-34.1,48.1-76.7,88.1-126.4,118.9c-48.1,29.7-100.8,49.6-156.7,59.1C1495.7,1681.8,1471,1683.9,1446.4,1683.9z M1072.2,1385.8
				c27.9,75.6,77.6,140.2,143.6,187c179.7,127.4,429.6,84.9,557-94.8c61.9-87.4,85.7-195.3,66.9-303.8
				c-18.7-108.3-77.1-201.9-164.2-263.7c-84.6-60-188.9-82.7-293.8-64.1c-107.6,19.1-204.6,81.3-266,170.6
				C1044,1121.2,1029.8,1241.8,1072.2,1385.8z"/>
		</g>
		<g>
			<path class="st2" d="M1449.9,1686.1c-60.1,0-118.3-11.8-173.2-35c-53-22.4-100.6-54.5-141.4-95.3
				c-40.9-40.9-72.9-88.4-95.3-141.4c-23.2-54.9-35-113.1-35-173.2c0-60.1,11.8-118.3,35-173.2c22.4-53,54.5-100.6,95.3-141.4
				c40.9-40.9,88.4-72.9,141.4-95.3c54.9-23.2,113.1-35,173.2-35c60.1,0,118.3,11.8,173.2,35c53,22.4,100.6,54.5,141.4,95.3
				c40.9,40.9,72.9,88.4,95.3,141.4c23.2,54.9,35,113.1,35,173.2c0,60.1-11.8,118.3-35,173.2c-22.4,53-54.5,100.6-95.3,141.4
				c-40.9,40.9-88.4,72.9-141.4,95.3C1568.2,1674.4,1510,1686.1,1449.9,1686.1z M1449.9,818c-233.4,0-423.3,189.9-423.3,423.3
				c0,233.4,189.9,423.3,423.3,423.3c233.4,0,423.3-189.9,423.3-423.3C1873.2,1007.9,1683.3,818,1449.9,818z M1449.9,1473.8
				c-128.2,0-232.5-104.3-232.5-232.5c0-128.2,104.3-232.5,232.5-232.5s232.5,104.3,232.5,232.5
				C1682.4,1369.5,1578.1,1473.8,1449.9,1473.8z M1449.9,1030.3c-116.3,0-210.9,94.6-210.9,210.9c0,116.3,94.6,210.9,210.9,210.9
				c116.3,0,210.9-94.6,210.9-210.9C1660.8,1125,1566.2,1030.3,1449.9,1030.3z"/>
		</g>
	</g>
	
		<ellipse transform="matrix(0.7071 -0.7071 0.7071 0.7071 -380.1659 1839.0546)" class="st11" cx="2029.9" cy="1378.4" rx="295.8" ry="295.8"/>
	<g>
		<path class="st6" d="M2195.2,1133.1c61.7,42.1,37.8,186.1-53.5,321.6c-91.3,135.5-215.4,211.2-277.2,169.1
			c-61.7-42.1-37.8-186.1,53.5-321.6C2009.4,1166.7,2133.5,1091,2195.2,1133.1z"/>
		<path class="st2" d="M1905,1646.2c-17.7,0-33.3-4.5-46.5-13.5c-33.5-22.9-46-71.3-35.2-136.4c10.4-62.2,40.9-133.3,85.9-200.1
			c32.9-48.8,71.2-91.7,110.8-124.2c39.2-32.1,77.9-52.5,111.9-59.1c27.4-5.3,50.8-1.5,69.5,11.2h0c33.5,22.9,46,71.3,35.2,136.4
			c-10.4,62.2-40.9,133.3-85.9,200.1c-32.9,48.8-71.2,91.7-110.8,124.2c-39.2,32.1-77.9,52.5-111.9,59.1
			C1919.9,1645.4,1912.2,1646.2,1905,1646.2z M2154.6,1132.2c-5.9,0-12.1,0.6-18.7,1.9c-63.9,12.3-145.9,80.6-208.9,174.1
			c-43.3,64.3-72.6,132.3-82.5,191.5c-9.2,55.5,0.3,97.5,26.1,115.1c13.7,9.4,31.7,12,53.3,7.9c63.9-12.3,145.9-80.6,208.9-174.1
			c43.3-64.3,72.6-132.3,82.5-191.5c9.2-55.5-0.3-97.5-26.1-115.1C2179.6,1135.5,2168,1132.2,2154.6,1132.2z"/>
	</g>
	<g>
		<path class="st4" d="M1917.2,1652c-18.4-7.6-36.3-17.2-53.4-28.8c-17.1-11.6-32.6-24.7-46.5-39c19.7-23.6,54.6-28.9,80.6-11.2
			C1923.8,1590.7,1931.8,1625,1917.2,1652z"/>
		<path class="st2" d="M1922.1,1665.7l-9-3.7c-19.3-8-38-18-55.4-29.8c-17.4-11.8-33.6-25.4-48.2-40.4l-6.8-7l6.2-7.5
			c23.6-28.2,64.4-33.9,94.9-13.2c30.5,20.7,40.3,60.7,22.8,93L1922.1,1665.7z M1832.6,1584.2c11.5,11,24,21.1,37.2,30.1
			c13.2,9,27.2,16.9,41.7,23.5c6.3-20.6-1.2-43.3-19.7-55.9C1873.3,1569.4,1849.3,1570.7,1832.6,1584.2z"/>
	</g>
	<g>
		<path class="st4" d="M2242.4,1172.6c-13.9-14.3-29.4-27.4-46.5-39c-17.1-11.6-35-21.2-53.4-28.8c-14.6,27.1-6.7,61.4,19.4,79
			C2187.9,1201.5,2222.7,1196.2,2242.4,1172.6z"/>
		<path class="st2" d="M2196,1205.2c-13.9,0-27.9-4-40.2-12.4c-30.5-20.7-40.3-60.7-22.8-93l4.6-8.5l9,3.7c19.3,8,38,18,55.4,29.8
			c17.4,11.8,33.6,25.4,48.2,40.4l6.8,7l-6.2,7.5C2236.6,1196.3,2216.5,1205.2,2196,1205.2z M2148.2,1119
			c-6.3,20.6,1.2,43.3,19.7,55.9c18.5,12.6,42.4,11.2,59.2-2.3c-11.5-11-24-21.1-37.2-30.1C2176.7,1133.6,2162.7,1125.7,2148.2,1119
			z"/>
	</g>
	<g>
		<path class="st2" d="M2030.8,1683.9c-33.9,0-67.9-5.7-100.8-17.1c-77.4-26.9-139.6-82.3-175.3-156
			c-35.7-73.7-40.6-156.9-13.7-234.3c26.9-77.4,82.3-139.6,156-175.3c73.7-35.7,156.9-40.6,234.3-13.7
			c77.4,26.9,139.6,82.3,175.3,156l0,0c35.7,73.7,40.6,156.9,13.7,234.3c-26.9,77.4-82.3,139.6-156,175.3
			C2122,1673.6,2076.5,1683.9,2030.8,1683.9z M2030.1,1092.1c-41.6,0-83.9,9.2-123.8,28.5c-141.5,68.5-200.8,239.4-132.3,380.8
			c33.2,68.5,91.1,120,163,145c71.9,25,149.3,20.5,217.8-12.7c141.5-68.5,200.8-239.4,132.3-380.8
			C2237.9,1151.3,2136,1092.1,2030.1,1092.1z"/>
	</g>
	<path class="st8" d="M1906.4,1140.5c34.5-17.9,70.7-16.7,80.8,2.8c10.1,19.4-9.7,49.7-44.2,67.6c-34.5,17.9-70.7,16.7-80.8-2.8
		C1852.1,1188.7,1871.8,1158.4,1906.4,1140.5z"/>
	
		<ellipse transform="matrix(0.5606 -0.8281 0.8281 0.5606 -260.1116 2397.3462)" class="st12" cx="2129" cy="1443.8" rx="191.5" ry="118.9"/>
	<g>
		<path class="st2" d="M1950.2,1003.4c-27.8,0-50.4-22.6-50.4-50.4s22.6-50.4,50.4-50.4c27.8,0,50.4,22.6,50.4,50.4
			S1978,1003.4,1950.2,1003.4z M1950.2,924.2c-15.9,0-28.8,12.9-28.8,28.8c0,15.9,12.9,28.8,28.8,28.8c15.9,0,28.8-12.9,28.8-28.8
			C1979.1,937.1,1966.1,924.2,1950.2,924.2z"/>
	</g>
	<g>
		<g>
			<path class="st2" d="M2099,798.4c-6,0-10.8-4.8-10.8-10.8v-42c0-6,4.8-10.8,10.8-10.8s10.8,4.8,10.8,10.8v42
				C2109.8,793.6,2104.9,798.4,2099,798.4z"/>
		</g>
		<g>
			<path class="st2" d="M2168.4,825.8h-42c-6,0-10.8-4.8-10.8-10.8s4.8-10.8,10.8-10.8h42c6,0,10.8,4.8,10.8,10.8
				S2174.4,825.8,2168.4,825.8z"/>
		</g>
		<g>
			<path class="st2" d="M2099,895.3c-6,0-10.8-4.8-10.8-10.8v-42c0-6,4.8-10.8,10.8-10.8s10.8,4.8,10.8,10.8v42
				C2109.8,890.5,2104.9,895.3,2099,895.3z"/>
		</g>
		<g>
			<path class="st2" d="M2071.6,825.8h-42c-6,0-10.8-4.8-10.8-10.8s4.8-10.8,10.8-10.8h42c6,0,10.8,4.8,10.8,10.8
				S2077.5,825.8,2071.6,825.8z"/>
		</g>
	</g>
	<g>
		<path class="st2" d="M601.3,1439.9c-27.8,0-50.4-22.6-50.4-50.4c0-27.8,22.6-50.4,50.4-50.4c27.8,0,50.4,22.6,50.4,50.4
			C651.7,1417.3,629.1,1439.9,601.3,1439.9z M601.3,1360.7c-15.9,0-28.8,12.9-28.8,28.8c0,15.9,12.9,28.8,28.8,28.8
			c15.9,0,28.8-12.9,28.8-28.8C630.1,1373.7,617.2,1360.7,601.3,1360.7z"/>
	</g>
	<g>
		<g>
			<path class="st2" d="M2417,1478.2c-6,0-10.8-4.8-10.8-10.8v-42c0-6,4.8-10.8,10.8-10.8s10.8,4.8,10.8,10.8v42
				C2427.7,1473.3,2422.9,1478.2,2417,1478.2z"/>
		</g>
		<g>
			<path class="st2" d="M2486.4,1505.6h-42c-6,0-10.8-4.8-10.8-10.8c0-6,4.8-10.8,10.8-10.8h42c6,0,10.8,4.8,10.8,10.8
				C2497.2,1500.8,2492.4,1505.6,2486.4,1505.6z"/>
		</g>
		<g>
			<path class="st2" d="M2417,1575c-6,0-10.8-4.8-10.8-10.8v-42c0-6,4.8-10.8,10.8-10.8s10.8,4.8,10.8,10.8v42
				C2427.7,1570.2,2422.9,1575,2417,1575z"/>
		</g>
		<g>
			<path class="st2" d="M2389.5,1505.6h-42c-6,0-10.8-4.8-10.8-10.8c0-6,4.8-10.8,10.8-10.8h42c6,0,10.8,4.8,10.8,10.8
				C2400.3,1500.8,2395.5,1505.6,2389.5,1505.6z"/>
		</g>
	</g>
	<g>
		<g>
			<path class="st2" d="M606.5,1269.9c-6,0-10.8-4.8-10.8-10.8v-42c0-6,4.8-10.8,10.8-10.8c6,0,10.8,4.8,10.8,10.8v42
				C617.3,1265,612.4,1269.9,606.5,1269.9z"/>
		</g>
		<g>
			<path class="st2" d="M675.9,1200.4h-42c-6,0-10.8-4.8-10.8-10.8c0-6,4.8-10.8,10.8-10.8h42c6,0,10.8,4.8,10.8,10.8
				C686.7,1195.6,681.9,1200.4,675.9,1200.4z"/>
		</g>
		<g>
			<path class="st2" d="M606.5,1173c-6,0-10.8-4.8-10.8-10.8v-42c0-6,4.8-10.8,10.8-10.8c6,0,10.8,4.8,10.8,10.8v42
				C617.3,1168.2,612.4,1173,606.5,1173z"/>
		</g>
		<g>
			<path class="st2" d="M579.1,1200.4h-42c-6,0-10.8-4.8-10.8-10.8c0-6,4.8-10.8,10.8-10.8h42c6,0,10.8,4.8,10.8,10.8
				C589.8,1195.6,585,1200.4,579.1,1200.4z"/>
		</g>
	</g>
</g>
</svg>
