<svg xmlns="http://www.w3.org/2000/svg" viewBox="0 0 702.05 603.59"><defs><style>.cls-1{isolation:isolate;}.cls-2{opacity:0.15;}.cls-3{fill:none;stroke:#474747;stroke-linecap:round;stroke-linejoin:round;stroke-width:6px;}.cls-4{fill:#fff;}.cls-5{fill:#d6d6d4;}.cls-6{fill:#bababa;}.cls-7{fill:#5eb173;}.cls-8,.cls-9{fill:#60a06c;}.cls-8{opacity:0.34;mix-blend-mode:multiply;}.cls-10{fill:#646464;}.cls-11{fill:#7c7c7c;}.cls-12{mix-blend-mode:overlay;}.cls-13{fill:#f6f9e4;}</style></defs><g class="cls-1"><g id="Layer_1" data-name="Layer 1"><g class="cls-2"><line class="cls-3" x1="3" y1="600.59" x2="665" y2="600.59"/><line class="cls-3" x1="566.52" y1="600.59" x2="566.52" y2="275.29"/><path class="cls-3" d="M758.59,335.11C782.87,366.64,846,568,732.52,568s-50.34-201.39-26.06-232.92c8.48-11,18.38-15.78,26.06-15.78S750.11,324.1,758.59,335.11Z" transform="translate(-166 -148.13)"/><line class="cls-3" x1="566.52" y1="325.32" x2="591.72" y2="300.12"/><line class="cls-3" x1="566.52" y1="384.03" x2="532.25" y2="349.75"/><circle class="cls-4" cx="649.66" cy="408.94" r="49.39"/><circle class="cls-3" cx="649.66" cy="408.94" r="49.39"/><line class="cls-3" x1="566.52" y1="492.14" x2="657.89" y2="400.78"/><line class="cls-3" x1="659.82" y1="437.94" x2="620.72" y2="437.94"/><line class="cls-3" x1="640.27" y1="418.39" x2="640.27" y2="400.78"/><line class="cls-3" x1="566.52" y1="551.62" x2="484.46" y2="469.56"/><ellipse class="cls-3" cx="661.62" cy="623.28" rx="42.31" ry="57.51" transform="translate(-407.92 376) rotate(-37.03)"/><line class="cls-3" x1="525.79" y1="510.89" x2="525.79" y2="484.4"/><line class="cls-3" x1="484.46" y1="489.87" x2="504.77" y2="489.87"/><rect class="cls-3" x="72.37" y="541.79" width="22.3" height="55.18"/><rect class="cls-3" x="302.97" y="541.79" width="22.3" height="55.18"/><rect class="cls-3" x="86.75" y="398.32" width="15.61" height="118.3"/><rect class="cls-3" x="295.29" y="398.32" width="15.61" height="118.3"/><rect class="cls-4" x="35.8" y="416.4" width="312.25" height="33.46"/><rect class="cls-3" x="35.8" y="416.4" width="312.25" height="33.46"/><rect class="cls-4" x="35.8" y="449.85" width="312.25" height="33.46"/><rect class="cls-3" x="35.8" y="449.85" width="312.25" height="33.46"/><circle class="cls-3" cx="303.09" cy="434.35" r="4.46"/><circle class="cls-3" cx="303.09" cy="466.58" r="4.46"/><circle class="cls-3" cx="94.55" cy="434.35" r="4.46"/><circle class="cls-3" cx="94.55" cy="466.58" r="4.46"/><rect class="cls-3" x="19.76" y="516.62" width="353.51" height="25.17"/></g><path class="cls-5" d="M422,712.62l4,28.62c.59,4.28,4.59,7.48,9.36,7.48H563.5c4.77,0,8.78-3.2,9.37-7.48l4-28.62Z" transform="translate(-166 -148.13)"/><path class="cls-6" d="M560.74,748.72l9.33-2.41,6.76-33.69H422l1.52,11h128C569.79,723.62,560.74,748.72,560.74,748.72Z" transform="translate(-166 -148.13)"/><path class="cls-7" d="M592.34,702.94l35-279.51H371.52l35,279.51a11.15,11.15,0,0,0,11.16,9.68H581.18A11.14,11.14,0,0,0,592.34,702.94Z" transform="translate(-166 -148.13)"/><path class="cls-7" d="M592.34,702.94l35-279.51H371.52l35,279.51a11.15,11.15,0,0,0,11.16,9.68H581.18A11.14,11.14,0,0,0,592.34,702.94Z" transform="translate(-166 -148.13)"/><path class="cls-8" d="M492.3,652.19a8.19,8.19,0,0,1-5.07-1.85c-2.17-1.77-3.5-4.84-3.64-8.41a15.12,15.12,0,0,1,4.24-11.41c.76-.73,3.08-2.95,6.09-2.95a5.74,5.74,0,0,1,.93.07,8,8,0,0,1,5.2,3.75,15.2,15.2,0,0,1,2,11.6c-1.11,4.36-4.82,9.06-9.51,9.2Zm1-13.75c-.87,2.08-.67,3.43-.43,3.65l.09.07a2.7,2.7,0,0,0,.5-.91A4.31,4.31,0,0,0,493.29,638.44Z" transform="translate(-166 -148.13)"/><path class="cls-8" d="M503.92,664.59a6.43,6.43,0,0,1-3.63-1.08c-2.24-1.5-2.07-3.47-1.45-10.8.39-4.64,1-11.66,1.48-22.71,0-.56.06-1.12.1-1.68h-.19q-.36,0-.69,0c-.79.08-1.59.11-2.38.14s-1.68.07-2.48.16c-.33,0-.63.07-.89.11a14.2,14.2,0,0,1-1.51.13,2.92,2.92,0,0,1-2.17-.85c-2.06-2.15.2-6.63,1.94-8.33a7.74,7.74,0,0,1,5.63-2,20,20,0,0,1,4.59.63,13.54,13.54,0,0,1,4.73-6.89,10.46,10.46,0,0,1,5.92-2.08,7.85,7.85,0,0,1,1.19.09,6.67,6.67,0,0,1,6,6.82,8.11,8.11,0,0,1,2.62-.45,7.59,7.59,0,0,1,1.07.08,6.34,6.34,0,0,1,3.68,1.75,6.94,6.94,0,0,1,1.58,6.23l-.4,1.71a2.61,2.61,0,0,0,.84-.55,4.27,4.27,0,0,0,1.07-2.77l.35-4.11,5.14,4.81.16.32c.9,1.8.3,4.13-1.75,6.73-1.5,1.92-4.39,2.85-8.82,2.85a40.71,40.71,0,0,1-4.36-.25,81.23,81.23,0,0,0-.48,10.33c0,2,.11,3.85.17,5.47.3,8.87.42,12.54-2.44,14.64a6.12,6.12,0,0,1-3.6,1.14h0a5.81,5.81,0,0,1-3.29-1,3.46,3.46,0,0,1-1.66-2.77,5.84,5.84,0,0,1-2.1,2.87A6.74,6.74,0,0,1,503.92,664.59Zm6.8-34.05a95.64,95.64,0,0,0-.32,9.82c.06,2.35.13,4.45.19,6.32,0,.77.05,1.5.07,2.21.29-3.71.61-8.54.9-14.93.05-1.09.12-2.14.23-3.14Zm12.84-5a14.37,14.37,0,0,0,3,.37,8.08,8.08,0,0,0,.89,0l-1.3-.7a2.47,2.47,0,0,0-1.13-.31l-.26,0A3.16,3.16,0,0,0,523.56,625.56Zm-9.73-3.22a12.79,12.79,0,0,1,1.94-3.14h-.19l-.39,0a4.28,4.28,0,0,0-2,1.25,4.8,4.8,0,0,0-.78,1.33Z" transform="translate(-166 -148.13)"/><path class="cls-8" d="M526.51,654.66a7.77,7.77,0,0,1-5.57-2c-1.92-1.93-2.55-5.36-1.72-9.43.9-4.42,3.83-10.33,9.1-12.45a12.53,12.53,0,0,1,4.36-.87,7.25,7.25,0,0,1,4.81,1.64,8.13,8.13,0,0,1,2.24,8.23,8.7,8.7,0,0,1-4.83,5.42,2.59,2.59,0,0,1,.55,1.37,7.61,7.61,0,0,1-2.29,5.62A9.62,9.62,0,0,1,526.51,654.66Zm5.09-16.83a3.82,3.82,0,0,0-1,.57A8.26,8.26,0,0,0,531.6,637.83Z" transform="translate(-166 -148.13)"/><path class="cls-8" d="M542.6,655.07a8.37,8.37,0,0,1-5.94-2.26c-1.9-1.95-2.55-5.24-1.77-9,1-4.84,4-8.94,7.61-10.43a11.15,11.15,0,0,1,4.17-.82,6.86,6.86,0,0,1,5.35,2.14c2.24,2.54,1.43,6,1.13,7a8.76,8.76,0,0,1-3.7,4.82,2.5,2.5,0,0,1,.64,1.53,6.8,6.8,0,0,1-2.17,5.14A7.81,7.81,0,0,1,542.6,655.07Z" transform="translate(-166 -148.13)"/><path class="cls-8" d="M469.41,663a16.06,16.06,0,0,1-4.61-.67c-5-1.51-8.95-5.6-11.26-11.5-2.49-6.39-1.74-14.49,1.88-21.77a12.4,12.4,0,0,0-4,1.81,7.22,7.22,0,0,1-3.62,1.45,3,3,0,0,1-1.87-.62c-1.15-.85-1.72-2.46-1.61-4.53.13-2.35,1.23-5.66,3.9-7.23a6.75,6.75,0,0,1,3.48-.89c2.61,0,5.6,1.18,8.71,2.62a23.54,23.54,0,0,1,10.11-6.86,19.72,19.72,0,0,1,5.74-1,7.65,7.65,0,0,1,6,2.29c3,3.38,1.63,9.49-1.5,13.08-1.51,1.73-4.34,3.85-9.26,4.13l-.78,0a18.45,18.45,0,0,1-5.34-1c-.45-.13-.88-.26-1.29-.4-1.94,6.71-1.05,13.86,2.24,16.6a7.49,7.49,0,0,0,4.51,1.74,5.22,5.22,0,0,0,1.13-.13c.12,0,2.76-.69,3.33-2.8a3.48,3.48,0,0,0-.54-3,3.69,3.69,0,0,0-1.55-1c-.6-.24-2.18-.88-2-2.58.16-1.91,2.55-2.78,4.7-2.78a7.25,7.25,0,0,1,1.76.21c4.63,1.19,8,7.73,6.88,13.44a13.34,13.34,0,0,1-5.74,8.25,16.24,16.24,0,0,1-9.41,3Zm-2-37.8a6,6,0,0,0,2.84.94,5.28,5.28,0,0,0,.55,0c1.73-.21,3.74-1.24,4.24-2.8a2.51,2.51,0,0,0,0-1.73,1.35,1.35,0,0,0-.79-.16,9.07,9.07,0,0,0-3.71,1.06l-.14.07A10.21,10.21,0,0,0,467.45,625.22Z" transform="translate(-166 -148.13)"/><path class="cls-9" d="M371.52,423.43l2.75,22H587a13.52,13.52,0,0,1,13.41,15.19l-22.18,230a19.76,19.76,0,0,1-16.18,17.56L537,712.62l35.62,0v0h8.52a11.14,11.14,0,0,0,11.16-9.68l35-279.51Z" transform="translate(-166 -148.13)"/><path class="cls-3" d="M422,712.62l4,28.62c.59,4.28,4.59,7.48,9.36,7.48H563.5c4.77,0,8.78-3.2,9.37-7.48l4-28.62Z" transform="translate(-166 -148.13)"/><path class="cls-3" d="M592.34,702.94l35-279.51H371.52l35,279.51a11.15,11.15,0,0,0,11.16,9.68H581.18A11.14,11.14,0,0,0,592.34,702.94Z" transform="translate(-166 -148.13)"/><path class="cls-10" d="M632.81,423.43H366c-8.69.07-7.5-4.59-4.49-13.55a25.1,25.1,0,0,0,0-16.24c-3-8.95-4.2-13.62,4.49-13.54H632.81c8.69-.08,7.49,4.59,4.48,13.54a25.23,25.23,0,0,0,0,16.24C640.3,418.84,641.5,423.5,632.81,423.43Z" transform="translate(-166 -148.13)"/><path class="cls-11" d="M637.29,393.64c1.94-5.78,3.13-9.77,1.39-11.85-.38,1.31-.85,2.77-1.39,4.36a25.08,25.08,0,0,0-1,11.87A24.71,24.71,0,0,1,637.29,393.64Z" transform="translate(-166 -148.13)"/><path class="cls-11" d="M362.59,398a25.21,25.21,0,0,0-1.06-11.87c-.53-1.59-1-3-1.38-4.36-1.74,2.08-.56,6.07,1.38,11.85A25.65,25.65,0,0,1,362.59,398Z" transform="translate(-166 -148.13)"/><path class="cls-11" d="M638.68,414.24c-1,1.15-2.79,1.72-5.87,1.69H366c-3.08,0-4.92-.54-5.87-1.69-1.74,6.1-1.28,9.25,5.87,9.19H632.81C640,423.49,640.41,420.34,638.68,414.24Z" transform="translate(-166 -148.13)"/><g class="cls-12"><path class="cls-10" d="M637.29,409.88c-.16-.47-.29-1-.43-1.45a25.2,25.2,0,0,0,.31,14.37C640.89,421.26,639.64,416.89,637.29,409.88Z" transform="translate(-166 -148.13)"/><path class="cls-10" d="M362.86,403.55c1-.43,4.91-10.11,10.9-10.11H627.3c7.24,0,8.52,14.56,9.56,15,0-.14.38-14.65.43-14.79,3-9,4.21-13.62-4.5-13.54H366.29c-9-.18-7.8,4.49-4.76,13.53C361.58,393.78,362.82,403.41,362.86,403.55Z" transform="translate(-166 -148.13)"/><path class="cls-10" d="M361.66,422.8a25.11,25.11,0,0,0,.3-14.37c-.13.49-.26,1-.43,1.45C359.18,416.89,357.93,421.26,361.66,422.8Z" transform="translate(-166 -148.13)"/></g><path class="cls-3" d="M632.81,423.43H366c-8.69.07-7.5-4.59-4.49-13.55a25.1,25.1,0,0,0,0-16.24c-3-8.95-4.2-13.62,4.49-13.54H632.81c8.69-.08,7.49,4.59,4.48,13.54a25.23,25.23,0,0,0,0,16.24C640.3,418.84,641.5,423.5,632.81,423.43Z" transform="translate(-166 -148.13)"/><path class="cls-5" d="M625.07,380.1H373.76l2.46-8.77c3.92-14,17.29-23.72,32.57-23.72H590c15.28,0,28.65,9.74,32.58,23.72Z" transform="translate(-166 -148.13)"/><path class="cls-5" d="M625.07,380.1H373.76l2.46-8.77c3.92-14,17.29-23.72,32.57-23.72H590c15.28,0,28.65,9.74,32.58,23.72Z" transform="translate(-166 -148.13)"/><path class="cls-4" d="M426.49,358l171.49,0c12.4,0,20,8.93,23.45,10-6-9.09-19.6-20.33-31.4-20.33H408.79c-15.28,0-28.65,9.74-32.57,23.72l-2.46,8.77h21.79C400.81,368.54,412.89,358,426.49,358Z" transform="translate(-166 -148.13)"/><path class="cls-3" d="M625.07,380.1H373.76l2.46-8.77c3.92-14,17.29-23.72,32.57-23.72H590c15.28,0,28.65,9.74,32.58,23.72Z" transform="translate(-166 -148.13)"/><path class="cls-5" d="M354.42,179.62h41.7a13.45,13.45,0,0,1,13.45,13.45v6.41a0,0,0,0,1,0,0H341a0,0,0,0,1,0,0v-6.41A13.45,13.45,0,0,1,354.42,179.62Z"/><path class="cls-5" d="M354.42,179.62h41.7a13.45,13.45,0,0,1,13.45,13.45v6.41a0,0,0,0,1,0,0H341a0,0,0,0,1,0,0v-6.41A13.45,13.45,0,0,1,354.42,179.62Z"/><path class="cls-4" d="M507.08,347.39a12.82,12.82,0,0,1,12.82-12.81h43a12.8,12.8,0,0,1,12.7,11.18v-5.19a12.82,12.82,0,0,0-12.82-12.82h-43A12.82,12.82,0,0,0,507,340.57v7h.11Z" transform="translate(-166 -148.13)"/><path class="cls-9" d="M491.27,582.41c-10.62,0-29.76-7.5-35.93-27.62a55.61,55.61,0,0,1,6.71-50.22c7.38-10.58,17.48-16.64,27.7-16.64a26.43,26.43,0,0,1,9.24,1.69l.14.05.14.08c2.13,1.2,3.34,2.61,3.71,4.3.63,2.89-1.33,5.61-3.81,9.05-5,6.9-11.8,16.35-5.09,33.79,7.76,20.21,7.81,39.39,3,44C496,581.88,494,582.41,491.27,582.41Z" transform="translate(-166 -148.13)"/><path class="cls-3" d="M354.42,179.62h41.7a13.45,13.45,0,0,1,13.45,13.45v6.41a0,0,0,0,1,0,0H341a0,0,0,0,1,0,0v-6.41A13.45,13.45,0,0,1,354.42,179.62Z"/><path class="cls-9" d="M518.77,582.14a13.58,13.58,0,0,1-10-4.11,11,11,0,0,1-3-8.32c.53-8-2.2-15.61-4.83-23-2.4-6.73-4.67-13.09-4.68-19.71-.06-24.36,16.28-32.08,18.3-32.94A8.32,8.32,0,0,1,519,492.9c6.5,0,14.47,6.4,20.3,16.29a57.68,57.68,0,0,1,.34,57.49c-5.45,9.83-13,15.46-20.82,15.46Z" transform="translate(-166 -148.13)"/><path class="cls-13" d="M499.29,488.49c11.79,6.67-18.09,14.88-6.08,46.12,8.2,21.33,7,38.45,3.48,41.78s-30.94-.65-38.46-25.24C445.83,517.44,472.8,478.61,499.29,488.49Z" transform="translate(-166 -148.13)"/><path class="cls-13" d="M516.48,492.86s-17.27,6.81-17.21,31.15c0,13.61,10.53,27.26,9.51,42.83-.72,10.82,17.81,18,30.06-4.13C560.42,523.77,528.43,485.31,516.48,492.86Z" transform="translate(-166 -148.13)"/><path class="cls-13" d="M488.22,630c-4.61,4.43-4.83,13.47-.72,16.84a6.17,6.17,0,0,0,3.95,1.39c3.8-.11,6.75-4.25,7.63-7.7,1.37-5.39-1.53-12.24-5.54-12.87C491.07,627.23,488.9,629.31,488.22,630Zm6.11,10c-.1.29-.74,2.08-2.09,2.27a2.29,2.29,0,0,1-1.72-.62c-1.21-1.1-1.14-3.63.11-6.33.77-1.22,1.35-1.47,1.76-1.44C493.78,633.9,495.26,637.33,494.33,639.92Z" transform="translate(-166 -148.13)"/><path class="cls-13" d="M500.41,659.85c-2.13-1.43-.32-4.57.91-31.76.33-7.5,1.91-14.31,5.82-17a8,8,0,0,1,5.68-1.66,5,5,0,0,1,2.95,1.36c1.87,1.9,1.26,4.77,1.2,5.05a4.88,4.88,0,0,0-3.1-.58,6,6,0,0,0-3.11,1.87c-3.8,4.14-3.36,21.3-3.36,21.3.36,14.26,1.09,19.25-1.69,21.29A4.77,4.77,0,0,1,500.41,659.85Z" transform="translate(-166 -148.13)"/><path class="cls-13" d="M511.77,659.56c-1.85-1.24-.27-4,.78-27.51.3-6.5,1.66-12.4,5.05-14.74a7,7,0,0,1,4.92-1.44,4.35,4.35,0,0,1,2.55,1.18,5,5,0,0,1,1,4.37,4.29,4.29,0,0,0-2.69-.5,5.23,5.23,0,0,0-2.69,1.62c-3.3,3.58-2.92,18.45-2.92,18.45.32,12.35.95,16.68-1.45,18.44A4.16,4.16,0,0,1,511.77,659.56Z" transform="translate(-166 -148.13)"/><path class="cls-13" d="M528.65,646.44a3.8,3.8,0,0,1-3-.38c-2.09-1.52-1.43-6.85,1.25-9.88.37-.43,2.75-3,4.8-2.3a2.07,2.07,0,0,1,1.44,1.53c.12,1.65-3.37,3.61-6.53,3.84a9.54,9.54,0,0,1-3.93-.58c-.93,1.29-.78,2.08-.67,2.4.64,1.91,4.93,1.75,5.51,1.73.37,0,7.87-.48,9.26-5.57a6.18,6.18,0,0,0-1.6-6.17c-2.58-2.19-6.58-.67-7.13-.45-7.05,2.85-10.34,15-6.71,18.61,2.11,2.12,7,1.83,9.4-.48,1.6-1.57,2-4.07,1.54-4.35S530.86,645.87,528.65,646.44Z" transform="translate(-166 -148.13)"/><path class="cls-13" d="M543.7,647.69a3.41,3.41,0,0,1-2.65-.34c-1.87-1.37-1.13-6.06,1.11-8.79.35-.42,2-2.45,3.37-2a1.85,1.85,0,0,1,1.15,1.73c-.06,1.59-2.76,2.78-4.78,3a7.38,7.38,0,0,1-3.49-.51c-.83,1.14-.7,1.85-.6,2.13.5,1.49,3.44,1.65,4.9,1.53,2.62-.2,6.47-1.75,7.52-5.29.13-.44.93-3.29-.71-5.15s-5.24-1.63-7.25-.8c-5.85,2.42-8.65,12.66-5.18,16.22,2,2,6.37,2.24,8.48.31,1.46-1.32,1.79-3.61,1.38-3.87S545.66,647.18,543.7,647.69Z" transform="translate(-166 -148.13)"/><path class="cls-13" d="M531.57,620.43a6.2,6.2,0,0,1-1.68,4.05c-6.88,6.61-30.72-11.93-37.44-5.35-1.46,1.42-2.74,4.63-1.89,5.51.38.41,1.05.22,2.89,0,1.63-.18,3.28-.14,4.91-.3,4-.37,10.06,2,16.38,3.36,1.59.34,14.16,2.9,17.17-.93.38-.49,2.34-3,1.53-4.61h0Z" transform="translate(-166 -148.13)"/><path class="cls-13" d="M461.6,622.94c4.26,2.07,5.69,3.51,8.49,3.17,2.22-.27,5.08-1.64,5.9-4.18.32-1,.51-2.76-.44-3.74-1.44-1.48-4.9-.5-6.85.52l-.2.11c-8.65,4.72-11.41,23.53-4.41,29.35a8.85,8.85,0,0,0,7.39,2c.4-.09,3.93-1,4.79-4.22a5.43,5.43,0,0,0-.93-4.78c-1.29-1.54-3.18-1.56-3.13-2.09s2.13-1.28,4-.8c3.55.91,6.33,6.36,5.42,11.13-.77,4-3.91,6.25-4.94,7a14.28,14.28,0,0,1-12.28,2c-6.76-2-9.41-8.86-10-10.31-4.9-12.57,4.33-29.76,15.76-33.38.84-.27,7-2.23,9.64.74,2.23,2.52,1,7.58-1.51,10.43-2.75,3.16-6.84,3.4-7.87,3.46a15.38,15.38,0,0,1-5.47-.87c-5.1-1.44-5.43-3-8.24-3.45-5.42-.8-8.78,4.4-10.56,3.07-1.57-1.18-.85-6.69,2.11-8.44S456,620.24,461.6,622.94Z" transform="translate(-166 -148.13)"/><path class="cls-3" d="M576.66,202.38c-7.75,10.86-16.41,13.62-22.95,26.25-1.8,3.49-7.11,13.73-5.5,26,2.13,16.25,14.31,20.4,15.5,35,.54,6.64-1.25,14.64-8,24" transform="translate(-166 -148.13)"/><path class="cls-3" d="M601.71,151.13c6.11,25.32,1.72,40.91-3.5,50.5-9.52,17.51-26.83,24.27-28,41.89-.55,8.32,2.74,15.32,5.36,19.67" transform="translate(-166 -148.13)"/><path class="cls-3" d="M544.38,211.13s-12,14-12,26.67" transform="translate(-166 -148.13)"/></g></g></svg>