<?xml version="1.0" standalone="no"?><!DOCTYPE svg PUBLIC "-//W3C//DTD SVG 1.1//EN" "http://www.w3.org/Graphics/SVG/1.1/DTD/svg11.dtd"><svg t="1649225388821" class="icon" viewBox="0 0 1024 1024" version="1.1" xmlns="http://www.w3.org/2000/svg" p-id="13476" xmlns:xlink="http://www.w3.org/1999/xlink" width="200" height="200"><defs><style type="text/css"></style></defs><path d="M811.008 653.312l43.008 43.008-167.936 163.84-100.352-100.352 43.008-43.008 57.344 57.344 124.928-120.832zM704.512 184.32c22.528 0 45.056 12.288 55.296 34.816l53.248 106.496c4.096 8.192 6.144 18.432 6.144 26.624V593.92h-61.44V389.12H225.28v389.12h278.528l65.536 61.44H225.28c-34.816 0-61.44-26.624-61.44-61.44V358.4c0-10.24 2.048-18.432 6.144-26.624l53.248-112.64c10.24-20.48 32.768-34.816 55.296-34.816h425.984zM450.56 450.56v61.44h-163.84v-61.44h163.84z m-172.032-204.8l-38.912 81.92h505.856l-40.96-81.92H278.528z" p-id="13477"></path></svg>